# xmcd
#
# Track frame offsets: 
#        150
#        21276
#        47968
#        70307
#        84786
#        98906
#        114967
#        129534
#        144008
#        175823
#        188705
#        206895
#        225446
#        239272
#        263381
#        275736
#        286435
#        301905
#        315180
#
# Disc length: 4610 seconds
#
# Revision: 1
# Processed by: cddbd v1.5.2PL0 Copyright (c) Steve Scherf et al.
# Submitted via: ExactAudioCopy v0.99pb5
#
DISCID=fc120013
DTITLE=Rod Piazza and the Mighty Flyers - Radioactive Material - File 
DTITLE=Under Rock CD Reissue
DYEAR=2004
DGENRE=Blues
TTITLE0=Tell Me Mama
TTITLE1=Help Me
TTITLE2=Talk To Your Daughter
TTITLE3=Just A Feeling
TTITLE4=Shot From the Saddle
TTITLE5=She's Tough
TTITLE6=Mellow Down Easy
TTITLE7=It Ain't Right
TTITLE8=Five Long Years
TTITLE9=Too Young To Have Fun
TTITLE10=Take Out Some Insurance
TTITLE11=Stranded In The Jungle
TTITLE12=Spin and Win
TTITLE13=Texas Twister
TTITLE14=Strange Looks
TTITLE15=Boogie Woogie Teenage Girl
TTITLE16=It Wasn't Me
TTITLE17=Cry Cry Baby
TTITLE18=Waitin' On You Baby
EXTD=
EXTT0=
EXTT1=
EXTT2=
EXTT3=
EXTT4=
EXTT5=
EXTT6=
EXTT7=
EXTT8=
EXTT9=
EXTT10=
EXTT11=
EXTT12=
EXTT13=
EXTT14=
EXTT15=
EXTT16=
EXTT17=
EXTT18=
PLAYORDER=
